<svg id="Capa_1" enable-background="new 0 0 511.995 511.995" height="512" viewBox="0 0 511.995 511.995" width="512" xmlns="http://www.w3.org/2000/svg"><g><path d="m76.153 152.832v206.325c0 10.182 8.354 18.477 18.477 18.477h322.736c10.071 0 18.477-8.236 18.477-18.477v-85.662c0-4.143-3.357-7.5-7.5-7.5s-7.5 3.357-7.5 7.5v79.472l-117.34-95.878 117.34-95.878v77.285c0 4.143 3.357 7.5 7.5 7.5s7.5-3.357 7.5-7.5v-85.663c0-10.04-8.125-18.476-18.477-18.476h-322.737c-10.317 0-18.476 8.408-18.476 18.475zm15 200.135v-191.757l117.339 95.879zm317.814 9.667h-305.939l117.317-95.86 19.118 15.621c9.581 7.827 23.488 7.826 33.068 0 0-.001 0-.001 0-.001 12.618-10.31 11.066-9.042 19.117-15.621zm2.675-213.277c-9.061 7.403-142.569 116.493-148.601 121.422-4.096 3.347-10.034 3.313-14.087.001-8.727-7.131-144.499-118.07-148.602-121.423z"/><path d="m191.531 398.469-70.555 18.123c-10.126 2.601-15.097 14.046-10.06 23.224l35.039 63.865c6.414 11.689 23.454 10.879 28.746-1.339l7.034-16.239c71.434 31.003 151.267 23.799 213.976-13.061 7.025-4.129 9.556-13.035 5.76-20.278l-10.587-20.188c-4.055-7.733-13.808-10.53-21.343-6.05-49.193 29.276-111.492 34.534-166.594 10.609l7.271-16.783c5.292-12.223-5.791-25.2-18.687-21.883zm185.682 40.948c.034-.021.092-.056.202-.024.124.035.165.113.185.15l10.586 20.187c.079.151.024.321-.075.38-58.954 34.653-134.07 41.303-201.144 11.91-7.191-3.15-15.531.122-18.641 7.302l-7.389 17.058c-.356.823-1.434.806-1.832.086l-35.039-63.864c-.323-.591-.011-1.312.642-1.48l70.555-18.124c.832-.214 1.53.605 1.19 1.395l-7.617 17.583c-3.079 7.106.168 15.418 7.238 18.528 60.664 26.688 128.372 20.312 181.139-11.087z"/><path d="m320.63 113.523 70.555-18.125c10.126-2.6 15.094-14.047 10.059-23.223l-35.04-63.864c-6.408-11.68-23.453-10.88-28.746 1.338l-7.034 16.239c-71.425-31-151.262-23.803-213.977 13.062-7.025 4.13-9.555 13.036-5.758 20.277l10.587 20.187c4.08 7.78 13.853 10.504 21.341 6.05 24.312-14.467 51.014-22.919 79.363-25.121 4.13-.321 7.217-3.929 6.896-8.059-.321-4.129-3.908-7.232-8.059-6.896-30.669 2.383-59.561 11.529-85.872 27.186-.034.022-.095.052-.201.025-.124-.035-.165-.114-.185-.151l-10.585-20.188c-.079-.151-.024-.321.075-.379 58.952-34.652 134.072-41.306 201.144-11.91 7.179 3.144 15.526-.109 18.641-7.302l7.389-17.058c.328-.758 1.386-.895 1.832-.086l35.039 63.864c.323.591.009 1.314-.641 1.479l-70.555 18.125c-.835.218-1.535-.603-1.19-1.395l7.616-17.583c3.079-7.106-.168-15.418-7.238-18.528-18.723-8.237-38.541-13.496-58.904-15.628-4.133-.437-7.809 2.559-8.24 6.678-.432 4.12 2.559 7.809 6.678 8.24 18.514 1.939 36.541 6.675 53.594 14.077l-7.269 16.781c-5.298 12.227 5.785 25.197 18.685 21.888z"/></g></svg>