<?xml version="1.0" standalone="no"?>
<!DOCTYPE svg PUBLIC "-//W3C//DTD SVG 20010904//EN"
 "http://www.w3.org/TR/2001/REC-SVG-20010904/DTD/svg10.dtd">
<svg version="1.0" xmlns="http://www.w3.org/2000/svg"
 width="1229.000000pt" height="1280.000000pt" viewBox="0 0 1229.000000 1280.000000"
 preserveAspectRatio="xMidYMid meet">
<metadata>
Created by potrace 1.15, written by Peter Selinger 2001-2017
</metadata>
<g transform="translate(0.000000,1280.000000) scale(0.100000,-0.100000)"
fill="#000000" stroke="none">
<path d="M9996 12785 c-109 -28 -212 -91 -317 -195 -139 -136 -226 -279 -296
-480 -16 -47 -243 -916 -504 -1932 -261 -1017 -476 -1848 -479 -1848 -3 0
-146 528 -319 1173 -173 644 -326 1204 -342 1244 -59 151 -178 293 -291 346
-123 57 -1685 620 -1746 628 -221 31 -465 -110 -642 -371 -47 -69 -119 -212
-148 -295 -12 -33 -294 -991 -627 -2130 -333 -1138 -608 -2078 -613 -2088 -4
-11 -135 460 -371 1340 -200 747 -376 1389 -392 1426 -53 131 -144 246 -248
311 -46 29 -1648 620 -1746 643 -115 28 -263 -1 -391 -78 -74 -44 -191 -154
-254 -237 -106 -141 -206 -376 -247 -579 -22 -111 -25 -398 -4 -488 35 -160
2184 -8152 2205 -8204 57 -141 160 -267 263 -323 48 -27 1610 -602 1721 -634
71 -21 193 -14 277 15 215 76 415 288 533 566 18 44 310 1025 648 2180 338
1155 617 2107 620 2115 5 11 9 9 15 -10 5 -14 171 -630 369 -1370 411 -1535
390 -1470 529 -1611 56 -57 95 -86 142 -108 73 -34 1608 -596 1684 -617 65
-18 136 -18 227 1 242 50 465 274 600 601 23 57 78 246 138 482 55 213 585
2279 1180 4592 594 2313 1087 4237 1096 4275 24 111 29 351 10 470 -41 246
-154 447 -305 545 -30 19 -380 152 -898 341 -826 303 -850 311 -933 315 -54 2
-106 -2 -144 -11z"/>
</g>
</svg>
